<svg viewBox="395 5 710 495" fill="none" xmlns="http://www.w3.org/2000/svg" role="img" aria-label="Synapse mark">
  <path d="M 1005.5 13.8 C 1006.9 13.6 1009.2 13.6 1010.5 13.6 C 1011.8 13.7 1014.6 13.9 1016 14.2 C 1017.4 14.4 1020.6 15 1022 15.3 C 1023.4 15.6 1025.8 16.3 1026.9 16.6 C 1028 17 1029.7 17.6 1030.8 18.2 C 1031.9 18.8 1034.4 20.3 1035.8 21.2 C 1037.2 22.2 1040.6 24.4 1042.1 25.8 C 1043.5 27.1 1046.3 30.4 1047.6 32.2 C 1049 34.1 1051.6 38.8 1052.6 40.8 C 1053.6 42.8 1055.1 46.5 1055.7 48.2 C 1056.2 50 1056.6 53.1 1056.8 54.8 C 1057 56.4 1057.2 59.9 1057.2 61.8 C 1057.1 63.6 1056.9 67.5 1056.7 69.2 C 1056.4 71 1055.6 74.4 1055.1 76 C 1054.6 77.6 1053.2 80.5 1052.5 82 C 1051.8 83.5 1050.2 86.3 1049.4 87.6 C 1048.6 89 1046.8 91.6 1045.8 92.8 C 1044.8 94 1042.8 96.2 1041.8 97.2 C 1040.7 98.2 1038.5 100 1037.2 100.9 C 1036 101.7 1033.4 103.3 1032 104.1 C 1030.6 104.8 1027.4 106.2 1026 106.8 C 1024.6 107.3 1022 108.2 1020.8 108.5 C 1019.5 108.8 1017.8 109.1 1016.2 109.2 C 1014.7 109.3 1010.8 109.3 1008.5 109.3 C 1006.2 109.2 1000 108.8 997.5 108.8 C 995 108.8 990.3 109.1 988.2 109.4 C 986.2 109.7 982.8 110.4 980.8 111 C 978.7 111.6 974.3 113.3 972 114.3 C 969.7 115.4 964.2 118.2 962 119.3 C 959.8 120.5 956.1 122.6 954.5 123.5 C 952.9 124.4 951.3 125.6 949.5 126.9 C 947.7 128.2 943.2 131.7 940.4 133.9 C 937.6 136.1 930.6 141.6 927.1 144.6 C 923.6 147.6 916.3 154.3 912.4 157.9 C 908.5 161.5 899.5 170.3 896.1 173.7 C 892.8 177 887.4 182.5 885.4 184.7 C 883.4 186.8 881.7 188.9 880.2 190.9 C 878.7 192.9 875.3 197.7 873.5 200.5 C 871.6 203.3 867 210.5 865.3 213.5 C 863.7 216.5 861.1 222.2 860.1 224.8 C 859.2 227.3 858.2 232.2 857.8 234.2 C 857.4 236.2 856.9 239.5 856.9 240.8 C 856.9 242 857.3 243.3 857.5 244.2 C 857.8 245.2 858.5 247.2 859 248.2 C 859.5 249.3 860.8 251.8 861.4 252.8 C 862 253.7 863.1 255.4 863.7 256 C 864.3 256.7 865.2 257.6 865.9 258.1 C 866.6 258.6 868.4 259.7 869.5 260.2 C 870.6 260.7 873.3 261.8 874.5 262.3 C 875.7 262.8 877.9 263.5 879 263.9 C 880.1 264.2 881.8 264.7 883 264.9 C 884.2 265.1 887.1 265.4 888.8 265.4 C 890.4 265.5 894.2 265.6 896.2 265.5 C 898.2 265.3 902.5 264.8 904.8 264.4 C 907 264 911.4 263.2 914.2 262.2 C 917.1 261.3 923.6 258.8 927.2 257.2 C 930.9 255.5 940.3 250.9 943.8 249.1 C 947.2 247.3 952.7 244.2 954.8 242.9 C 956.8 241.6 959.1 239.4 960.2 238.5 C 961.4 237.6 963.3 236.4 964 236 C 964.7 235.6 964.8 236.3 966 235.5 C 967.2 234.6 971.2 231.7 974 229.5 C 976.8 227.3 985.1 220.6 988 218.1 C 990.9 215.7 995.5 211.6 997.2 210 C 999 208.3 1000.6 206.1 1001.8 205 C 1002.9 203.9 1005.2 202 1006.4 201.2 C 1007.5 200.4 1009.9 199.4 1011.1 198.4 C 1012.4 197.4 1014.9 195 1016.3 193.5 C 1017.6 192 1020.7 188.6 1021.9 186.5 C 1023.2 184.4 1025.3 179.5 1026.3 176.8 C 1027.2 174 1028.6 166.8 1029.4 164.2 C 1030.1 161.7 1031.5 157.5 1032.2 156 C 1032.8 154.5 1033.9 153 1034.7 152 C 1035.4 151 1037.2 149.2 1038.2 148.4 C 1039.2 147.5 1041.6 145.9 1042.7 145.1 C 1043.9 144.4 1046.1 143.1 1047.2 142.5 C 1048.4 142 1050.4 140.9 1051.8 140.6 C 1053.1 140.2 1056.4 139.7 1058.2 139.6 C 1060.1 139.5 1064.8 139.5 1066.8 139.6 C 1068.7 139.7 1072 140.2 1073.5 140.6 C 1075 141 1077.2 141.9 1078.5 142.6 C 1079.8 143.3 1082.2 145 1083.5 146 C 1084.8 147 1087.4 149.7 1088.5 150.8 C 1089.6 152 1091.4 154.1 1092.1 155.2 C 1092.8 156.2 1093.8 157.9 1094.3 159.1 C 1094.8 160.2 1095.6 162.9 1095.9 164.5 C 1096.3 166.1 1096.9 169.8 1097 171.5 C 1097 173.2 1096.8 176.6 1096.5 178.2 C 1096.3 179.9 1095.2 183.3 1094.7 184.8 C 1094.1 186.2 1092.9 188.7 1092.3 189.7 C 1091.6 190.8 1090.2 192.3 1089.4 193.2 C 1088.6 194.1 1086.8 195.8 1085.8 196.7 C 1084.7 197.6 1082.6 199.6 1081.2 200.4 C 1079.9 201.2 1076.6 202.6 1074.8 203.2 C 1072.9 203.8 1068.3 204.9 1066.2 205.3 C 1064.2 205.6 1060.3 206.1 1058.5 206.2 C 1056.7 206.3 1053.2 205.9 1051.5 206 C 1049.8 206 1046.7 206.4 1045.2 206.7 C 1043.8 207 1041.3 207.8 1039.8 208.4 C 1038.2 209 1034.6 210.7 1032.7 211.7 C 1030.7 212.7 1026.9 214.7 1024.1 216.6 C 1021.2 218.5 1014.1 223.7 1009.8 227 C 1005.6 230.3 994.3 239.4 990 243 C 985.7 246.6 978.3 253 975.2 255.8 C 972.1 258.5 967.7 262.9 965.5 265.2 C 963.2 267.6 959 272.4 957.1 274.8 C 955.2 277.1 951.7 282 950.3 284.2 C 948.8 286.5 946.3 290.8 945.3 292.8 C 944.3 294.8 942.9 298.2 942.3 300.2 C 941.8 302.2 941.2 306.5 941.1 308.8 C 941 311 941.3 316.1 941.6 318.2 C 941.8 320.4 942.6 324.2 943.1 325.8 C 943.6 327.4 945 330.1 945.7 331.4 C 946.4 332.7 947.9 335 948.8 336.1 C 949.6 337.2 951.3 339 952.2 340 C 953.2 341 955.3 343 956.5 344.1 C 957.7 345.1 959.4 347.1 961.5 348.3 C 963.6 349.6 969.5 352.4 973.2 354 C 977 355.7 987.8 359.7 991.8 361.2 C 995.7 362.8 1002 365.5 1004.5 366.7 C 1007 367.8 1009.9 369.3 1011.5 370.3 C 1013.1 371.3 1016 373.5 1017.3 374.6 C 1018.6 375.8 1020.7 378.1 1021.9 379.5 C 1023.1 381 1025.6 384.3 1026.9 386.2 C 1028.2 388.2 1031.1 392.4 1032.4 394.8 C 1033.6 397.1 1035.8 402.4 1036.7 405.2 C 1037.6 408.1 1039.4 414.7 1039.9 417.8 C 1040.4 420.8 1040.8 426.8 1040.7 429.8 C 1040.5 432.7 1039.5 438.7 1039 441.2 C 1038.5 443.8 1037.5 448.3 1036.9 450.2 C 1036.3 452.2 1035 455.2 1034.4 456.8 C 1033.7 458.2 1032.3 461 1031.6 462.2 C 1030.9 463.5 1029.7 465.5 1028.6 466.8 C 1027.6 468 1024.8 471 1023.1 472.6 C 1021.4 474.2 1017 478.3 1015 479.8 C 1013.1 481.4 1009.3 484 1007.5 485.1 C 1005.7 486.2 1002.2 487.7 1000.5 488.5 C 998.8 489.3 995.2 490.6 993.5 491.2 C 991.8 491.8 988.4 493 986.5 493.4 C 984.6 493.8 980.6 494.3 978.5 494.4 C 976.4 494.6 971.7 494.6 969.5 494.5 C 967.3 494.4 963.2 494 961.2 493.6 C 959.3 493.3 955.7 492.5 953.8 491.9 C 951.8 491.3 947.8 489.8 945.7 488.8 C 943.6 487.9 939 485.5 937 484.3 C 935 483.1 931.4 480.6 929.7 479.2 C 928 477.9 925.1 475.3 923.6 473.8 C 922.1 472.2 919.1 468.7 917.7 466.7 C 916.2 464.7 913.2 460.3 911.9 458.1 C 910.6 455.8 908.4 451.1 907.5 448.6 C 906.5 446.1 905 440.5 904.4 438.2 C 903.8 435.9 902.8 431.9 902.4 430.2 C 902.1 428.6 902 426.4 901.6 424.8 C 901.2 423.1 900.1 419.2 899.3 417 C 898.6 414.8 896.6 409.5 895.6 407 C 894.6 404.5 892.4 399.7 891.3 397.3 C 890.2 394.9 887.9 390.4 886.4 387.9 C 885 385.5 881.7 380.3 879.9 377.7 C 878 375 873.4 369 871.6 366.6 C 869.7 364.2 866.5 360.1 865.1 358.5 C 863.8 356.9 862.1 355 860.5 353.5 C 859 352 855 348.5 852.7 346.5 C 850.3 344.4 844.3 339.4 841.6 337.4 C 838.8 335.3 833.6 331.8 831 330.3 C 828.4 328.8 823.6 326.5 821 325.3 C 818.4 324.2 812.9 322.2 810 321.3 C 807.1 320.4 800.9 318.7 798 318.1 C 795.1 317.5 789.6 316.7 787 316.5 C 784.4 316.3 779.7 316.4 777 316.6 C 774.3 316.8 768.6 317.6 765.5 318.2 C 762.4 318.7 756 320.2 752.5 321.3 C 749 322.4 741.5 325.3 737.5 327.1 C 733.5 328.9 724.8 333.2 720.5 335.6 C 716.2 337.9 707.6 343.2 703.2 346 C 698.9 348.9 689.9 355.3 685.8 358.4 C 681.6 361.5 673.6 367.6 669.9 370.7 C 666.1 373.7 658.8 380 655.6 382.9 C 652.5 385.8 646.8 391.2 644.4 393.7 C 641.9 396.2 637.9 400.9 636.1 403.1 C 634.4 405.2 631.5 409.1 630.4 410.8 C 629.3 412.5 627.9 415.1 627.1 416.9 C 626.4 418.8 625 423.1 624.4 425.5 C 623.8 427.9 622.8 434.2 622.3 436.5 C 621.7 438.8 620.7 442.7 620.2 444.2 C 619.7 445.8 618.7 447.6 618.2 448.8 C 617.6 449.9 616.4 452.1 615.7 453.3 C 615 454.4 613.7 456.6 612.7 457.8 C 611.7 458.9 609.3 461.1 607.9 462.3 C 606.5 463.4 603 465.8 601.3 466.8 C 599.6 467.8 596.1 469.5 594.2 470.2 C 592.4 470.9 588.5 472 586.8 472.3 C 585 472.7 581.6 473.1 580 473.2 C 578.4 473.2 575.5 472.9 574 472.7 C 572.5 472.4 569.5 471.8 568 471.4 C 566.5 470.9 563.6 470 562 469.2 C 560.4 468.5 557.2 466.7 555.5 465.6 C 553.8 464.5 550 461.7 548.5 460.4 C 547 459 544.6 456.3 543.6 454.8 C 542.7 453.4 541.5 450.6 540.9 448.9 C 540.3 447.3 539.3 443.9 538.8 442 C 538.4 440.1 537.5 435.9 537.3 434 C 537.1 432.1 537.1 428.3 537.3 426.5 C 537.4 424.7 538.3 421.2 538.8 419.5 C 539.2 417.8 540.4 414.6 541.1 413 C 541.8 411.4 543.4 408.4 544.4 407 C 545.3 405.6 547.5 402.8 548.7 401.5 C 549.9 400.2 552.7 397.6 554 396.5 C 555.4 395.4 558 393.5 559.3 392.7 C 560.6 391.9 563.2 390.7 564.4 390.1 C 565.7 389.6 568.2 388.7 569.5 388.3 C 570.8 387.9 572.9 387.4 574.5 387.2 C 576.1 386.9 580 386.4 582.2 386.2 C 584.5 386 590 386 592.8 385.5 C 595.5 385.1 601.2 383.7 604.2 382.7 C 607.2 381.7 613.6 379.2 616.8 377.7 C 619.9 376.1 626.1 372.4 629.2 370.3 C 632.4 368.1 637 364.4 641.8 360.4 C 646.5 356.3 659.5 345.1 667.6 337.8 C 675.8 330.6 699.2 309.6 706.9 302.6 C 714.5 295.6 725.6 285.3 729 282 C 732.5 278.7 733.1 277.3 734.2 276 C 735.2 274.7 737 272.3 737.6 271.2 C 738.2 270.2 738.9 268.7 739.3 267.8 C 739.7 266.8 740.3 264.8 740.5 263.8 C 740.7 262.7 741.1 260.3 741.2 259.2 C 741.2 258.2 741.2 256.3 741.1 255.5 C 741 254.7 740.7 253.3 740.4 252.5 C 740.2 251.7 739.3 250.2 738.8 249.4 C 738.3 248.6 737.1 246.9 736.3 246.2 C 735.4 245.5 733.3 244.2 732 243.6 C 730.7 243 727.3 242 726 241.6 C 724.7 241.2 722.3 240.7 721.2 240.6 C 720.2 240.5 718.8 240.5 717.8 240.6 C 716.7 240.7 714 241.1 712.5 241.4 C 711 241.7 707.6 242.3 705.5 243 C 703.4 243.7 698.7 245.8 696 247.1 C 693.3 248.4 689.6 249.6 684 253.6 C 678.4 257.6 662.2 270.4 651.5 279.1 C 640.8 287.9 610.2 313.7 598.5 323.7 C 586.8 333.7 566.3 351.4 557.6 359 C 548.9 366.7 534.5 379.9 528.9 385 C 523.4 390.1 515.5 397.6 513.2 400 C 511 402.4 511.3 402.8 510.6 404 C 509.9 405.2 508.6 408.2 508 410 C 507.4 411.8 506.1 416.2 505.4 418 C 504.8 419.8 503.6 423.1 502.9 424.5 C 502.3 425.9 501.3 428.1 500.4 429.5 C 499.5 430.9 497.1 434.1 495.6 435.8 C 494.2 437.5 490.4 441.7 488.5 443.4 C 486.7 445 482.9 447.8 481 449 C 479.1 450.1 475 451.9 473 452.6 C 471 453.3 467 454.5 465 454.9 C 463 455.3 458.8 455.7 457 455.8 C 455.2 456 451.9 456 450.5 455.8 C 449.1 455.7 447 455.3 445.5 454.9 C 444 454.5 440.6 453.3 438.7 452.6 C 436.8 451.8 431.8 449.7 430.1 448.9 C 428.3 448 425.4 446.5 424.3 445.9 C 423.2 445.2 422.3 444.4 421.4 443.6 C 420.6 442.8 418.7 440.8 417.6 439.6 C 416.6 438.4 414 435.5 412.9 433.9 C 411.8 432.2 409.8 428.5 408.8 426.5 C 407.9 424.5 406 419.7 405.3 417.5 C 404.7 415.3 403.8 411.2 403.6 409.2 C 403.4 407.3 403.4 403.7 403.6 401.8 C 403.8 399.8 404.6 395.8 405.1 393.8 C 405.7 391.7 407.3 387.3 408.2 385.2 C 409.1 383.2 411.2 379.2 412.3 377.3 C 413.5 375.3 416 371.5 417.4 369.8 C 418.8 368.1 421.9 365.1 423.5 363.7 C 425.1 362.4 428.8 360.2 430.5 359.2 C 432.2 358.2 435.6 356.5 437.2 355.8 C 438.9 355.1 441.9 354.1 443.8 353.7 C 445.6 353.3 449.6 352.7 451.8 352.6 C 453.9 352.5 459 352.5 461.3 352.6 C 463.5 352.7 467.8 353 469.8 353.3 C 471.8 353.6 475.3 354.6 477.2 354.8 C 479.2 354.9 483.2 354.9 485.2 354.7 C 487.3 354.5 491.2 354 493.8 353.2 C 496.3 352.4 502.5 350 506 348.5 C 509.5 346.9 518 342.8 522 340.6 C 526 338.4 534.2 333.5 538.2 330.8 C 542.3 328.2 550.5 322.4 554.8 319.2 C 559 315.9 567.9 308.9 572.5 305 C 577.1 301.1 587.2 292.4 591.5 288.3 C 595.7 284.3 603.2 276.5 606.5 272.8 C 609.7 269.1 615.2 261.5 617.5 258.4 C 619.7 255.3 623.3 250.2 624.5 248.1 C 625.8 246.1 626.9 243.5 627.6 242 C 628.3 240.6 629.4 237.7 629.9 236.2 C 630.4 234.8 631.2 232.2 631.6 230.8 C 631.9 229.3 632.5 226.5 632.7 225 C 632.9 223.5 633.2 220.6 633.2 219 C 633.2 217.4 632.9 213.9 632.7 212 C 632.4 210.1 631.5 205.9 631 204 C 630.5 202.1 629.3 198.5 628.7 196.8 C 628 195 626.7 192 625.7 190.2 C 624.7 188.5 622.3 185 620.9 183.1 C 619.5 181.3 615.8 177.1 614.3 175.4 C 612.8 173.8 609.9 171 608.6 169.9 C 607.3 168.8 605.3 167.5 603.8 166.6 C 602.4 165.8 599 163.9 597.1 163 C 595.2 162 590.5 159.8 588.4 159 C 586.2 158.1 582 156.5 580 155.8 C 578 155.2 574.4 154.2 572 153.7 C 569.6 153.2 563.8 152.2 560.5 151.8 C 557.2 151.4 548.8 150.6 545.5 150.2 C 542.2 149.8 536.8 148.8 534.5 148.3 C 532.2 147.8 529.1 146.7 527.5 146.2 C 525.9 145.7 523.1 144.6 521.8 144.1 C 520.5 143.6 518.6 142.7 517.4 142 C 516.2 141.4 513.7 139.8 512.4 138.9 C 511.1 137.9 508.3 135.9 506.8 134.6 C 505.3 133.3 502.3 130.3 500.8 128.6 C 499.2 126.9 495.7 123 494.2 121 C 492.8 119 490.1 114.7 488.9 112.4 C 487.7 110.1 485.5 105.1 484.7 102.8 C 483.9 100.5 482.6 95.9 482.2 93.8 C 481.9 91.6 481.6 87.3 481.5 85.2 C 481.5 83.2 481.5 79.2 481.5 77.2 C 481.6 75.3 481.8 71.8 482.2 69.8 C 482.7 67.7 484 63 484.9 60.5 C 485.8 58 488.1 52.1 489.5 49.5 C 490.9 46.9 494.1 42 495.9 39.6 C 497.7 37.3 502.2 32.7 504 30.9 C 505.7 29.1 508.7 26.4 510 25.4 C 511.3 24.4 512.8 23.7 514 23.1 C 515.2 22.5 517.9 21.3 519.5 20.6 C 521.1 20 524.8 18.6 526.5 18.1 C 528.2 17.5 531.3 16.6 532.8 16.3 C 534.2 15.9 536.8 15.4 538.2 15.1 C 539.8 14.9 543 14.6 544.8 14.6 C 546.5 14.5 550.1 14.3 552.2 14.5 C 554.4 14.7 559.1 15.5 561.8 16.1 C 564.4 16.7 570.7 18.4 573.2 19.3 C 575.8 20.1 580.1 21.8 582 22.6 C 583.8 23.5 586.4 25.2 587.9 26.2 C 589.3 27.2 592 29.3 593.4 30.4 C 594.7 31.6 597.1 33.7 598.5 35.3 C 599.8 36.9 602.7 40.9 604.3 43.3 C 605.8 45.7 609.4 51.3 610.8 54.4 C 612.2 57.6 614.6 64.5 615.5 68.2 C 616.5 72 617.5 80.9 618.4 84.8 C 619.3 88.6 621.3 95.6 622.4 98.8 C 623.6 101.9 626.4 107.8 627.7 110.2 C 628.9 112.7 631.2 117 632.2 118.7 C 633.3 120.5 635 122.8 636.1 124.2 C 637.1 125.6 639.5 128.5 640.8 130.1 C 642 131.6 644.8 134.8 646.2 136.3 C 647.7 137.8 650.8 140.7 652.5 142.1 C 654.2 143.5 658 146.4 659.5 147.5 C 661 148.5 663.3 150.1 664.2 150.6 C 665.2 151.1 665.8 150.9 666.8 151.4 C 667.7 151.9 670.3 153.4 672 154.4 C 673.7 155.4 678 158.4 680 159.5 C 682 160.7 686 162.6 688 163.4 C 690 164.2 694.1 165.5 696 166.1 C 697.9 166.6 701.4 167.6 703 167.9 C 704.6 168.3 707.4 168.7 709 168.9 C 710.6 169.1 713.8 169.3 715.5 169.4 C 717.2 169.5 720.4 169.6 722.5 169.4 C 724.6 169.2 729.3 168.4 732 167.7 C 734.7 167.1 741.2 165.4 744 164.4 C 746.8 163.4 751.9 161.3 754.3 160 C 756.7 158.8 761 156.1 762.9 154.7 C 764.9 153.3 768.5 150.5 770.2 149 C 771.8 147.5 774.7 144.2 776 143 C 777.3 141.8 779.6 139.8 780.5 139 C 781.5 138.2 783 137.8 783.8 137 C 784.6 136.2 786.3 134.1 787.1 132.8 C 787.9 131.4 789.8 127.9 790.5 126.2 C 791.2 124.6 792.3 121.2 792.7 119.5 C 793.1 117.8 793.3 114.2 793.7 112.5 C 794.2 110.8 795.6 107.7 796.4 106.2 C 797.3 104.8 799.5 101.9 800.7 100.8 C 802 99.6 804.8 97.5 806.4 96.7 C 808 95.8 811.6 94.4 813.5 94 C 815.4 93.7 819.4 93.7 821.5 94.1 C 823.6 94.4 828.6 96 830.5 96.8 C 832.4 97.6 835.4 99.2 836.5 100.1 C 837.7 101 838.9 103 839.6 104 C 840.2 105.1 841.3 107.5 841.7 108.8 C 842.1 110 842.8 112.8 842.9 114.2 C 843 115.8 842.9 119 842.7 120.8 C 842.5 122.5 841.6 126.7 841.2 128.2 C 840.8 129.8 839.7 132.5 839.2 133.5 C 838.6 134.5 837.5 135.7 836.7 136.5 C 835.8 137.3 833.8 138.8 832.6 139.5 C 831.3 140.3 828.3 142 826.9 142.6 C 825.4 143.2 822.3 144.1 820.8 144.3 C 819.2 144.5 815.9 144.3 814.2 144.5 C 812.6 144.7 809.4 145.3 807.7 145.7 C 806.1 146.1 803.3 146.7 801.1 147.9 C 799 149.1 793.6 152.8 790.3 155.2 C 787.1 157.7 778.5 165 775.3 167.8 C 772.1 170.5 766.9 175.2 764.9 177.2 C 762.9 179.2 760.3 182.2 759.2 183.8 C 758 185.3 756.1 188.3 755.4 189.8 C 754.7 191.2 753.8 193.9 753.5 195.2 C 753.2 196.6 752.9 199.1 752.9 200.3 C 753 201.5 753.4 203.9 753.6 204.9 C 753.9 205.9 754.5 207.6 754.8 208.4 C 755.1 209.1 755.9 210.2 756.4 210.8 C 756.9 211.4 758 212.5 758.6 213 C 759.3 213.6 760.6 214.6 761.5 215.1 C 762.5 215.5 765 216.4 766.5 216.8 C 768 217.2 771.6 218.2 773.5 218.3 C 775.4 218.5 779.4 218.3 781.5 218 C 783.6 217.7 788.6 216.3 790.5 215.8 C 792.4 215.3 795.7 214.3 797 213.8 C 798.4 213.3 799.8 212.6 801.1 211.9 C 802.4 211.2 805.6 209.4 807.4 208.2 C 809.2 207 810.4 207 815.8 202.6 C 821.2 198.1 838.7 183.1 850.8 172.6 C 862.9 162 900.5 129 912.4 118.2 C 924.4 107.4 941.4 91.4 946.5 86.2 C 951.5 81.1 951.5 79.3 952.9 76.8 C 954.2 74.2 956.4 68.8 957.3 66 C 958.1 63.2 958.9 56.8 959.7 54 C 960.4 51.2 962.3 45.9 963.4 43.4 C 964.5 41 967.3 36.3 968.5 34.3 C 969.7 32.4 971.9 29.3 972.9 28.1 C 974 26.9 975.8 25.5 976.8 24.7 C 977.8 23.9 979.9 22.4 981.1 21.7 C 982.2 21 984.3 19.7 985.7 19.1 C 987 18.4 990.1 17.3 991.8 16.8 C 993.4 16.2 997.5 15.2 999.2 14.8 C 1001 14.4 1004.1 13.9 1005.5 13.8 Z" fill="#000"/>
</svg>
